# xmcd CD database file
#
# Track frame offsets:
#	150
#	17007
#	36590
#
# Disc length: 826 seconds
#
# Revision: 0
# Processed by: cddbd v1.5.1PL0 Copyright (c) Steve Scherf et al.
# Submitted via: CDex 1.51
#
DISCID=1f033803
DTITLE=スーパー・バター・ドッグ - コミュニケーション・ブレイクダンス
DYEAR=2000
DGENRE=Rock
TTITLE0=コミュニケーション・ブレイクダンス
TTITLE1=コミュニケーション・ブレイクダンス(Mr.Drunk)
TTITLE2=トホホでGO
EXTD=YEAR: 2000
EXTT0=
EXTT1=
EXTT2=
PLAYORDER=
